<svg xmlns="http://www.w3.org/2000/svg" xmlns:xlink="http://www.w3.org/1999/xlink" width="500" zoomAndPan="magnify" viewBox="0 0 375 374.999991" height="500" preserveAspectRatio="xMidYMid meet" version="1.0"><defs><g/><clipPath id="5ce24089ed"><path d="M 22.65625 139.441406 L 111.15625 139.441406 L 111.15625 195 L 22.65625 195 Z M 22.65625 139.441406 " clip-rule="nonzero"/></clipPath><clipPath id="19637c1622"><path d="M 22.65625 191 L 111.15625 191 L 111.15625 207 L 22.65625 207 Z M 22.65625 191 " clip-rule="nonzero"/></clipPath><clipPath id="8aa00ca600"><path d="M 28 215 L 106 215 L 106 227.941406 L 28 227.941406 Z M 28 215 " clip-rule="nonzero"/></clipPath></defs><g clip-path="url(#5ce24089ed)"><path fill="#0369A1" d="M 111.144531 144.253906 C 111.144531 142.980469 110.636719 141.761719 109.738281 140.863281 C 108.839844 139.960938 107.617188 139.457031 106.34375 139.457031 C 92.707031 139.457031 41.082031 139.457031 27.445312 139.457031 C 26.171875 139.457031 24.949219 139.960938 24.050781 140.863281 C 23.152344 141.761719 22.644531 142.980469 22.644531 144.253906 C 22.644531 155.710938 22.644531 192.871094 22.644531 192.871094 C 22.644531 193.6875 23.308594 194.347656 24.121094 194.347656 L 109.664062 194.347656 C 110.480469 194.347656 111.144531 193.6875 111.144531 192.871094 Z M 108.1875 191.390625 L 108.1875 144.253906 C 108.1875 143.765625 107.992188 143.296875 107.648438 142.953125 C 107.300781 142.605469 106.832031 142.410156 106.34375 142.410156 C 92.707031 142.410156 41.082031 142.410156 27.445312 142.410156 C 26.957031 142.410156 26.488281 142.605469 26.140625 142.953125 C 25.796875 143.296875 25.601562 143.765625 25.601562 144.253906 L 25.601562 191.390625 Z M 108.1875 191.390625 " fill-opacity="1" fill-rule="evenodd"/></g><g clip-path="url(#19637c1622)"><path fill="#0369A1" d="M 111.144531 192.871094 C 111.144531 192.054688 110.480469 191.390625 109.664062 191.390625 L 24.121094 191.390625 C 23.308594 191.390625 22.644531 192.054688 22.644531 192.871094 L 22.644531 197.515625 C 22.644531 199.917969 23.597656 202.21875 25.296875 203.917969 C 26.996094 205.613281 29.296875 206.570312 31.699219 206.570312 C 47.921875 206.570312 85.867188 206.570312 102.089844 206.570312 C 104.492188 206.570312 106.792969 205.613281 108.492188 203.917969 C 110.191406 202.21875 111.144531 199.917969 111.144531 197.515625 C 111.144531 195.019531 111.144531 192.871094 111.144531 192.871094 Z M 108.1875 194.347656 L 25.601562 194.347656 L 25.601562 197.515625 C 25.601562 199.132812 26.242188 200.683594 27.386719 201.828125 C 28.53125 202.96875 30.082031 203.613281 31.699219 203.613281 C 47.921875 203.613281 85.867188 203.613281 102.089844 203.613281 C 103.707031 203.613281 105.257812 202.96875 106.402344 201.828125 C 107.546875 200.683594 108.1875 199.132812 108.1875 197.515625 Z M 108.1875 194.347656 " fill-opacity="1" fill-rule="evenodd"/></g><path fill="#0369A1" d="M 77.539062 205.089844 C 77.539062 204.273438 76.875 203.613281 76.058594 203.613281 L 57.730469 203.613281 C 56.914062 203.613281 56.25 204.273438 56.25 205.089844 L 56.25 217.3125 C 56.25 218.128906 56.914062 218.789062 57.730469 218.789062 L 76.058594 218.789062 C 76.875 218.789062 77.539062 218.128906 77.539062 217.3125 Z M 59.207031 206.570312 L 59.207031 215.832031 L 74.582031 215.832031 L 74.582031 206.570312 Z M 59.207031 206.570312 " fill-opacity="1" fill-rule="evenodd"/><g clip-path="url(#8aa00ca600)"><path fill="#0369A1" d="M 105.035156 226.46875 C 105.035156 223.648438 103.914062 220.945312 101.917969 218.949219 C 99.921875 216.953125 97.21875 215.832031 94.398438 215.832031 C 80.308594 215.832031 53.480469 215.832031 39.390625 215.832031 C 36.570312 215.832031 33.867188 216.953125 31.871094 218.949219 C 29.875 220.945312 28.753906 223.648438 28.753906 226.46875 C 28.753906 226.472656 28.753906 226.476562 28.753906 226.476562 C 28.753906 227.292969 29.417969 227.953125 30.234375 227.953125 L 103.554688 227.953125 C 104.371094 227.953125 105.035156 227.292969 105.035156 226.476562 Z M 101.933594 225 C 101.644531 223.507812 100.917969 222.128906 99.828125 221.039062 C 98.386719 219.597656 96.433594 218.789062 94.398438 218.789062 C 80.308594 218.789062 53.480469 218.789062 39.390625 218.789062 C 37.355469 218.789062 35.402344 219.597656 33.960938 221.039062 C 32.871094 222.128906 32.144531 223.507812 31.855469 225 Z M 101.933594 225 " fill-opacity="1" fill-rule="evenodd"/></g><path fill="#0369A1" d="M 63.839844 200.457031 L 69.949219 200.457031 C 70.765625 200.457031 71.425781 199.796875 71.425781 198.980469 C 71.425781 198.164062 70.765625 197.503906 69.949219 197.503906 L 63.839844 197.503906 C 63.023438 197.503906 62.363281 198.164062 62.363281 198.980469 C 62.363281 199.796875 63.023438 200.457031 63.839844 200.457031 Z M 63.839844 200.457031 " fill-opacity="1" fill-rule="evenodd"/><path fill="#0369A1" d="M 86.738281 156.148438 C 86.738281 153.738281 85.78125 151.425781 84.074219 149.722656 C 82.371094 148.015625 80.058594 147.058594 77.648438 147.058594 C 68.347656 147.058594 53.800781 147.058594 53.800781 147.058594 C 52.964844 147.058594 52.289062 147.734375 52.289062 148.570312 L 52.289062 179.699219 C 52.289062 180.535156 52.964844 181.214844 53.800781 181.214844 L 85.226562 181.214844 C 86.0625 181.214844 86.738281 180.535156 86.738281 179.699219 Z M 55.3125 150.085938 L 55.3125 178.1875 L 83.710938 178.1875 L 83.710938 156.148438 C 83.710938 154.539062 83.074219 152.996094 81.933594 151.859375 C 80.796875 150.722656 79.253906 150.085938 77.648438 150.085938 Z M 55.3125 150.085938 " fill-opacity="1" fill-rule="evenodd"/><path fill="#0369A1" d="M 86.738281 179.699219 C 86.738281 178.863281 86.0625 178.1875 85.226562 178.1875 L 54.09375 178.1875 C 52.226562 178.1875 50.433594 178.929688 49.113281 180.25 C 47.792969 181.570312 47.050781 183.363281 47.050781 185.230469 C 47.050781 185.230469 47.050781 185.234375 47.050781 185.234375 C 47.050781 186.070312 47.726562 186.746094 48.5625 186.746094 L 85.226562 186.746094 C 86.0625 186.746094 86.738281 186.070312 86.738281 185.234375 Z M 83.710938 181.214844 L 54.09375 181.214844 C 53.027344 181.214844 52.007812 181.636719 51.253906 182.390625 C 50.871094 182.773438 50.570312 183.226562 50.371094 183.71875 L 83.710938 183.71875 Z M 83.710938 181.214844 " fill-opacity="1" fill-rule="evenodd"/><path fill="#0369A1" d="M 53.882812 181.21875 C 54.683594 181.175781 55.3125 180.511719 55.3125 179.707031 L 55.3125 148.570312 C 55.3125 147.734375 54.636719 147.058594 53.800781 147.058594 C 50.074219 147.058594 47.050781 150.082031 47.050781 153.808594 C 47.050781 163.9375 47.050781 185.234375 47.050781 185.234375 C 47.050781 186.070312 47.726562 186.746094 48.5625 186.746094 C 49.398438 186.746094 50.078125 186.070312 50.078125 185.234375 L 50.078125 185.230469 C 50.078125 184.164062 50.5 183.144531 51.253906 182.390625 C 51.957031 181.6875 52.894531 181.273438 53.882812 181.21875 Z M 52.289062 150.40625 C 50.984375 150.984375 50.078125 152.289062 50.078125 153.808594 L 50.078125 179.445312 C 50.75 178.976562 51.5 178.632812 52.289062 178.421875 Z M 52.289062 150.40625 " fill-opacity="1" fill-rule="evenodd"/><path fill="#0369A1" d="M 77.574219 157.738281 C 77.574219 156.902344 76.894531 156.222656 76.058594 156.222656 L 62.335938 156.222656 C 61.5 156.222656 60.824219 156.902344 60.824219 157.738281 L 60.824219 163.675781 C 60.824219 164.511719 61.5 165.1875 62.335938 165.1875 L 76.058594 165.1875 C 76.894531 165.1875 77.574219 164.511719 77.574219 163.675781 Z M 63.847656 159.25 L 63.847656 162.160156 L 74.546875 162.160156 L 74.546875 159.25 Z M 63.847656 159.25 " fill-opacity="1" fill-rule="evenodd"/><path stroke-linecap="butt" transform="matrix(0.75, 0, 0, 0.75, 110.911857, 186.827186)" fill="none" stroke-linejoin="miter" d="M 40.560235 61.001256 L 59.763361 61.001256 L 59.763361 42.214796 L 89.815446 3.829377 L 67.51857 3.829377 L 50.112319 26.621045 L 32.799818 3.829377 L 10.424816 3.829377 L 40.560235 42.214796 Z M 128.607115 61.818964 C 153.669617 61.818964 164.53941 51.845005 164.53941 32.324171 C 164.53941 12.881461 153.669617 3.011669 128.607115 3.011669 C 103.440447 3.011669 92.669613 12.803336 92.669613 32.324171 C 92.669613 51.928339 103.440447 61.818964 128.607115 61.818964 Z M 128.607115 45.647088 C 115.206073 45.647088 111.851906 40.261671 111.851906 32.324171 C 111.851906 24.485628 115.12274 19.183545 128.607115 19.183545 C 142.086283 19.183545 145.435242 24.568962 145.435242 32.324171 C 145.435242 40.183546 142.008158 45.647088 128.607115 45.647088 Z M 204.153995 61.818964 C 229.216497 61.818964 240.086289 52.183547 240.086289 32.324171 L 240.086289 3.829377 L 220.982122 3.829377 L 220.982122 32.324171 C 220.982122 38.943963 218.76858 45.647088 204.153995 45.647088 C 189.617536 45.647088 187.403994 39.022088 187.403994 32.324171 L 187.403994 3.829377 L 168.216493 3.829377 L 168.216493 32.324171 C 168.216493 52.26688 178.987327 61.818964 204.153995 61.818964 Z M 244.581081 61.001256 L 263.763374 61.001256 L 263.763374 47.042922 L 279.779 47.042922 L 288.195668 61.001256 L 310.805044 61.001256 L 300.518585 44.32938 C 307.299836 40.897088 311.383169 34.037712 311.383169 25.38667 C 311.383169 12.641878 302.492544 3.829377 289.487334 3.829377 L 244.581081 3.829377 Z M 263.763374 30.871046 L 263.763374 20.001253 L 285.419626 20.001253 C 288.273793 20.001253 292.279001 20.001253 292.279001 25.38667 C 292.279001 30.871046 288.273793 30.871046 285.419626 30.871046 Z M 263.763374 30.871046 " stroke="#000000" stroke-width="2.348352" stroke-opacity="1" stroke-miterlimit="4"/><g fill="#0369A1" fill-opacity="1"><g transform="translate(147.647466, 178.583102)"><g><path d="M 29.957031 0.613281 C 48.761719 0.613281 56.910156 -6.617188 56.910156 -21.5 L 56.910156 -42.882812 L 47.230469 -42.882812 L 47.230469 -21.5 C 47.230469 -15.191406 45.578125 -7.535156 29.957031 -7.535156 C 14.335938 -7.535156 12.679688 -15.132812 12.679688 -21.5 L 12.679688 -42.882812 L 3 -42.882812 L 3 -21.5 C 3 -6.554688 11.089844 0.613281 29.957031 0.613281 Z M 29.957031 0.613281 "/></g></g></g><g fill="#0369A1" fill-opacity="1"><g transform="translate(207.554225, 178.583102)"><g><path d="M 3 0 L 34 0 C 45.210938 0 54.949219 -6.859375 54.949219 -21.441406 C 54.949219 -36.019531 45.210938 -42.882812 34 -42.882812 L 3 -42.882812 Z M 12.679688 -8.148438 L 12.679688 -34.734375 L 29.957031 -34.734375 C 39.632812 -34.734375 45.269531 -32.527344 45.269531 -21.441406 C 45.269531 -10.351562 39.632812 -8.148438 29.957031 -8.148438 Z M 12.679688 -8.148438 "/></g></g></g><g fill="#0369A1" fill-opacity="1"><g transform="translate(264.888302, 178.583102)"><g><path d="M 3 0 L 48.332031 0 L 48.332031 -7.78125 L 12.679688 -7.78125 L 12.679688 -17.765625 L 48.332031 -17.765625 L 48.332031 -25.117188 L 12.679688 -25.117188 L 12.679688 -35.101562 L 48.332031 -35.101562 L 48.332031 -42.882812 L 3 -42.882812 Z M 3 0 "/></g></g></g></svg>